<svg xmlns="http://www.w3.org/2000/svg" viewBox="0 0 138 156" width="138" height="156">
  <path d="M 54 7 L 45 13 L 39 21 L 36 28 L 34 40 L 19 40 L 15 42 L 12 46 L 4 129 L 5 143 L 8 147 L 13 150 L 29 151 L 123 150 L 131 144 L 133 138 L 125 46 L 119 40 L 103 40 L 101 27 L 97 19 L 87 9 L 74 4 L 64 4 Z M 87 57 L 89 55 L 91 55 L 95 61 L 99 61 L 102 56 L 104 55 L 107 58 L 107 62 L 105 66 L 101 69 L 93 69 L 88 65 L 87 63 Z M 30 58 L 34 55 L 37 60 L 42 61 L 44 60 L 45 57 L 48 55 L 51 58 L 50 64 L 46 68 L 44 69 L 37 69 L 31 64 Z M 47 31 L 51 24 L 57 19 L 64 16 L 74 16 L 82 20 L 88 26 L 91 32 L 91 39 L 90 40 L 48 40 L 47 39 Z" fill="#f85f7f" fill-rule="evenodd"/>
</svg>