<svg xmlns="http://www.w3.org/2000/svg" viewBox="0 0 152 167" width="152" height="167">
  <path d="M 54 10 L 42 22 L 38 31 L 36 44 L 17 45 L 12 49 L 10 53 L 4 135 L 5 154 L 8 158 L 16 162 L 134 162 L 141 159 L 146 153 L 147 141 L 141 59 L 139 50 L 131 44 L 115 44 L 112 30 L 106 19 L 99 12 L 88 6 L 71 4 Z M 96 64 L 100 61 L 104 67 L 109 68 L 111 67 L 113 63 L 116 61 L 119 64 L 119 70 L 116 74 L 111 77 L 103 77 L 98 73 L 96 69 Z M 31 65 L 36 61 L 40 67 L 45 68 L 50 62 L 53 62 L 55 65 L 55 69 L 49 76 L 47 77 L 39 77 L 33 72 Z M 50 36 L 54 28 L 60 22 L 69 18 L 78 17 L 89 21 L 98 30 L 101 39 L 101 43 L 100 44 L 51 44 L 50 43 Z" fill="#f85f7f" fill-rule="evenodd"/>
</svg>